<mxfile host="app.diagrams.net" agent="Mozilla/5.0 (Windows NT 10.0; Win64; x64) AppleWebKit/537.36 (KHTML, like Gecko) Chrome/127.0.0.0 Safari/537.36" version="24.7.6">
  <diagram name="Page-1" id="c7488fd3-1785-93aa-aadb-54a6760d102a">
    <mxGraphModel dx="2512" dy="724" grid="1" gridSize="10" guides="1" tooltips="1" connect="1" arrows="1" fold="1" page="1" pageScale="1" pageWidth="1100" pageHeight="850" background="none" math="0" shadow="0">
      <root>
        <mxCell id="0" />
        <mxCell id="1" parent="0" />
        <mxCell id="YmtZWJ9DrbEyBujM09_e-3" value="" style="shape=link;html=1;rounded=0;" edge="1" parent="1">
          <mxGeometry width="100" relative="1" as="geometry">
            <mxPoint x="344" y="752" as="sourcePoint" />
            <mxPoint x="344" y="40" as="targetPoint" />
          </mxGeometry>
        </mxCell>
        <mxCell id="YmtZWJ9DrbEyBujM09_e-4" value="" style="endArrow=none;html=1;rounded=0;" edge="1" parent="1">
          <mxGeometry width="50" height="50" relative="1" as="geometry">
            <mxPoint x="862" y="89" as="sourcePoint" />
            <mxPoint x="152" y="89" as="targetPoint" />
          </mxGeometry>
        </mxCell>
        <mxCell id="YmtZWJ9DrbEyBujM09_e-5" value="Cliente" style="text;html=1;align=center;verticalAlign=middle;whiteSpace=wrap;rounded=0;" vertex="1" parent="1">
          <mxGeometry x="195" y="44" width="90" height="30" as="geometry" />
        </mxCell>
        <mxCell id="YmtZWJ9DrbEyBujM09_e-6" value="ITP" style="text;html=1;align=center;verticalAlign=middle;whiteSpace=wrap;rounded=0;" vertex="1" parent="1">
          <mxGeometry x="426" y="40" width="90" height="30" as="geometry" />
        </mxCell>
        <mxCell id="YmtZWJ9DrbEyBujM09_e-7" value="" style="shape=link;html=1;rounded=0;" edge="1" parent="1">
          <mxGeometry width="100" relative="1" as="geometry">
            <mxPoint x="592" y="752" as="sourcePoint" />
            <mxPoint x="592" y="40" as="targetPoint" />
          </mxGeometry>
        </mxCell>
        <mxCell id="YmtZWJ9DrbEyBujM09_e-9" value="Estado do vínculo" style="text;html=1;align=center;verticalAlign=middle;whiteSpace=wrap;rounded=0;" vertex="1" parent="1">
          <mxGeometry x="682" y="44" width="90" height="30" as="geometry" />
        </mxCell>
        <mxCell id="YmtZWJ9DrbEyBujM09_e-11" value="Criar vinculo de disposi&lt;span style=&quot;background-color: initial;&quot;&gt;tivo&lt;/span&gt;" style="points=[[0.25,0,0],[0.5,0,0],[0.75,0,0],[1,0.25,0],[1,0.5,0],[1,0.75,0],[0.75,1,0],[0.5,1,0],[0.25,1,0],[0,0.75,0],[0,0.5,0],[0,0.25,0]];shape=mxgraph.bpmn.task;whiteSpace=wrap;rectStyle=rounded;size=10;html=1;container=1;expand=0;collapsible=0;taskMarker=abstract;" vertex="1" parent="1">
          <mxGeometry x="160" y="110" width="160" height="50" as="geometry" />
        </mxCell>
        <mxCell id="YmtZWJ9DrbEyBujM09_e-12" value="POST /enrollments" style="points=[[0.25,0,0],[0.5,0,0],[0.75,0,0],[1,0.25,0],[1,0.5,0],[1,0.75,0],[0.75,1,0],[0.5,1,0],[0.25,1,0],[0,0.75,0],[0,0.5,0],[0,0.25,0]];shape=mxgraph.bpmn.task;whiteSpace=wrap;rectStyle=rounded;size=10;html=1;container=1;expand=0;collapsible=0;taskMarker=abstract;" vertex="1" parent="1">
          <mxGeometry x="384" y="110" width="174" height="50" as="geometry" />
        </mxCell>
        <mxCell id="YmtZWJ9DrbEyBujM09_e-13" value="AWAITING_RISK_SIGNALS" style="points=[[0.25,0,0],[0.5,0,0],[0.75,0,0],[1,0.25,0],[1,0.5,0],[1,0.75,0],[0.75,1,0],[0.5,1,0],[0.25,1,0],[0,0.75,0],[0,0.5,0],[0,0.25,0]];shape=mxgraph.bpmn.task;whiteSpace=wrap;rectStyle=rounded;size=10;html=1;container=1;expand=0;collapsible=0;taskMarker=abstract;" vertex="1" parent="1">
          <mxGeometry x="659" y="110" width="180" height="50" as="geometry" />
        </mxCell>
        <mxCell id="YmtZWJ9DrbEyBujM09_e-14" value="POST&lt;br&gt;/enrollments/{enrollmentId}/risk-signals" style="points=[[0.25,0,0],[0.5,0,0],[0.75,0,0],[1,0.25,0],[1,0.5,0],[1,0.75,0],[0.75,1,0],[0.5,1,0],[0.25,1,0],[0,0.75,0],[0,0.5,0],[0,0.25,0]];shape=mxgraph.bpmn.task;whiteSpace=wrap;rectStyle=rounded;size=10;html=1;container=1;expand=0;collapsible=0;taskMarker=abstract;" vertex="1" parent="1">
          <mxGeometry x="371" y="190" width="199" height="60" as="geometry" />
        </mxCell>
        <mxCell id="YmtZWJ9DrbEyBujM09_e-17" value="" style="shape=flexArrow;endArrow=classic;html=1;rounded=0;" edge="1" parent="1">
          <mxGeometry width="50" height="50" relative="1" as="geometry">
            <mxPoint x="80" y="20" as="sourcePoint" />
            <mxPoint x="910" y="20" as="targetPoint" />
          </mxGeometry>
        </mxCell>
        <mxCell id="YmtZWJ9DrbEyBujM09_e-18" value="AWAITING_ACCOUNT_HOLDER_VALIDATION" style="points=[[0.25,0,0],[0.5,0,0],[0.75,0,0],[1,0.25,0],[1,0.5,0],[1,0.75,0],[0.75,1,0],[0.5,1,0],[0.25,1,0],[0,0.75,0],[0,0.5,0],[0,0.25,0]];shape=mxgraph.bpmn.task;whiteSpace=wrap;rectStyle=rounded;size=10;html=1;container=1;expand=0;collapsible=0;taskMarker=abstract;" vertex="1" parent="1">
          <mxGeometry x="610" y="190" width="278" height="60" as="geometry" />
        </mxCell>
        <mxCell id="YmtZWJ9DrbEyBujM09_e-19" value="Redireciona o cliente para autorização" style="points=[[0.25,0,0],[0.5,0,0],[0.75,0,0],[1,0.25,0],[1,0.5,0],[1,0.75,0],[0.75,1,0],[0.5,1,0],[0.25,1,0],[0,0.75,0],[0,0.5,0],[0,0.25,0]];shape=mxgraph.bpmn.task;whiteSpace=wrap;rectStyle=rounded;size=10;html=1;container=1;expand=0;collapsible=0;taskMarker=abstract;" vertex="1" parent="1">
          <mxGeometry x="384" y="270" width="174" height="50" as="geometry" />
        </mxCell>
        <mxCell id="YmtZWJ9DrbEyBujM09_e-20" value="Confere e autoriza o vínculo" style="points=[[0.25,0,0],[0.5,0,0],[0.75,0,0],[1,0.25,0],[1,0.5,0],[1,0.75,0],[0.75,1,0],[0.5,1,0],[0.25,1,0],[0,0.75,0],[0,0.5,0],[0,0.25,0]];shape=mxgraph.bpmn.task;whiteSpace=wrap;rectStyle=rounded;size=10;html=1;container=1;expand=0;collapsible=0;taskMarker=abstract;" vertex="1" parent="1">
          <mxGeometry x="146" y="347" width="174" height="50" as="geometry" />
        </mxCell>
        <mxCell id="YmtZWJ9DrbEyBujM09_e-22" value="AWAITING_ENROLLMENT" style="points=[[0.25,0,0],[0.5,0,0],[0.75,0,0],[1,0.25,0],[1,0.5,0],[1,0.75,0],[0.75,1,0],[0.5,1,0],[0.25,1,0],[0,0.75,0],[0,0.5,0],[0,0.25,0]];shape=mxgraph.bpmn.task;whiteSpace=wrap;rectStyle=rounded;size=10;html=1;container=1;expand=0;collapsible=0;taskMarker=abstract;" vertex="1" parent="1">
          <mxGeometry x="659" y="337" width="180" height="60" as="geometry" />
        </mxCell>
        <mxCell id="YmtZWJ9DrbEyBujM09_e-23" value="" style="shape=flexArrow;endArrow=classic;html=1;rounded=0;" edge="1" parent="1">
          <mxGeometry width="50" height="50" relative="1" as="geometry">
            <mxPoint x="80" y="50" as="sourcePoint" />
            <mxPoint x="80" y="690" as="targetPoint" />
          </mxGeometry>
        </mxCell>
      </root>
    </mxGraphModel>
  </diagram>
</mxfile>
